<svg width="157" height="37" viewBox="0 0 157 37" fill="none" xmlns="http://www.w3.org/2000/svg">
<g id="Logo">
<path id="Vector" d="M129.948 23.5162C130.539 23.5066 131.125 23.6239 131.664 23.8599C132.144 24.0769 132.563 24.4066 132.881 24.8195C133.195 25.2403 133.39 25.7342 133.446 26.2518H131.906C131.854 25.9939 131.747 25.7497 131.591 25.5357C131.418 25.3094 131.191 25.1275 130.931 25.0057C130.626 24.8644 130.292 24.7956 129.955 24.8052C129.639 24.7997 129.325 24.8608 129.036 24.9844C128.746 25.108 128.487 25.2911 128.276 25.5213C127.798 26.122 127.568 26.8757 127.631 27.6339C127.59 28.3744 127.801 29.1073 128.232 29.7179C128.44 29.9759 128.708 30.181 129.015 30.3157C129.321 30.4504 129.656 30.5106 129.992 30.4913C130.325 30.4993 130.656 30.4254 130.953 30.2764C131.212 30.1487 131.435 29.962 131.605 29.7322C131.763 29.5199 131.869 29.2748 131.913 29.0161H133.446C133.397 29.5211 133.204 30.0026 132.888 30.4053C132.566 30.8118 132.145 31.1341 131.664 31.3435C131.13 31.5712 130.552 31.6836 129.97 31.6729C129.25 31.686 128.537 31.5262 127.895 31.2074C127.29 30.9016 126.796 30.4216 126.479 29.8324C126.118 29.1547 125.941 28.3976 125.966 27.6339C125.951 26.8912 126.114 26.1554 126.443 25.4855C126.745 24.8863 127.222 24.3879 127.814 24.0533C128.464 23.6917 129.2 23.5063 129.948 23.5162Z" fill="#00AA61"/>
<path id="Vector_2" d="M138.901 31.623C138.17 31.6386 137.447 31.4762 136.796 31.1503C136.199 30.84 135.71 30.3608 135.396 29.7753C135.05 29.0982 134.881 28.3477 134.905 27.5911C134.888 26.8492 135.049 26.1136 135.374 25.4427C135.675 24.8455 136.15 24.3475 136.738 24.0105C137.411 23.6516 138.171 23.476 138.938 23.502C139.667 23.4823 140.39 23.6476 141.035 23.9818C141.634 24.31 142.115 24.81 142.413 25.4141C142.76 26.1064 142.929 26.8709 142.905 27.6413C142.92 28.3663 142.762 29.0847 142.443 29.7395C142.15 30.3355 141.683 30.8338 141.101 31.1718C140.422 31.5125 139.662 31.6683 138.901 31.623ZM138.901 30.3697C139.337 30.3853 139.767 30.2622 140.126 30.0188C140.466 29.766 140.722 29.4193 140.859 29.0234C141.035 28.5486 141.12 28.046 141.108 27.541C141.115 27.0551 141.041 26.5713 140.888 26.1087C140.753 25.704 140.498 25.3475 140.155 25.0847C139.784 24.8184 139.331 24.6844 138.872 24.7051C138.428 24.6875 137.991 24.8106 137.625 25.056C137.288 25.3034 137.033 25.6421 136.892 26.03C136.715 26.5095 136.63 27.017 136.642 27.5267C136.635 28.0127 136.709 28.4966 136.862 28.9589C137.001 29.3643 137.255 29.7222 137.596 29.9902C137.975 30.2607 138.439 30.3947 138.908 30.3697H138.901Z" fill="#00AA61"/>
<path id="Vector_3" d="M144.773 31.4726V23.5951H146.504V24.7266C146.768 24.3612 147.108 24.0538 147.501 23.8243C147.998 23.5531 148.561 23.4217 149.129 23.4447C149.448 23.4437 149.765 23.492 150.068 23.5879C150.385 23.6785 150.683 23.824 150.948 24.0176C151.216 24.2034 151.434 24.4489 151.586 24.7338C151.867 24.3473 152.239 24.0329 152.671 23.8171C153.142 23.5724 153.67 23.4492 154.204 23.459C154.523 23.4615 154.841 23.5049 155.15 23.5879C155.48 23.6799 155.788 23.833 156.059 24.0391C156.356 24.2686 156.59 24.5663 156.741 24.9056C156.929 25.36 157.017 25.8481 156.997 26.3379V31.4797H155.216V26.5026C155.234 26.1514 155.152 25.8021 154.981 25.4929C154.833 25.2663 154.618 25.089 154.365 24.9844C154.109 24.8837 153.835 24.8327 153.558 24.834C153.289 24.8392 153.022 24.8851 152.766 24.9701C152.483 25.0533 152.229 25.212 152.033 25.4284C151.826 25.6703 151.721 25.9802 151.74 26.2949V31.4726H149.965V26.1589C149.97 25.8978 149.879 25.6437 149.708 25.4427C149.54 25.2454 149.323 25.0927 149.078 24.9987C148.845 24.9036 148.597 24.8526 148.345 24.8483C148.061 24.8503 147.781 24.9012 147.516 24.9987C147.248 25.0983 147.01 25.2635 146.827 25.4785C146.631 25.7119 146.532 26.0081 146.548 26.3092V31.4869L144.773 31.4726Z" fill="#00AA61"/>
<path id="Vector_4" d="M57.8643 31.6229V16.7202C57.8643 14.7557 58.6629 12.8715 60.0846 11.4817C61.5063 10.0919 63.4349 9.31013 65.4465 9.30823C68.3797 9.30823 70.5795 9.80952 72.0975 10.7978C72.829 11.2574 73.4249 11.8956 73.8261 12.6492C74.2274 13.4029 74.4202 14.2458 74.3853 15.0946C74.4143 16.2089 74.0491 17.2989 73.3514 18.1811C72.3901 19.1918 71.1456 19.904 69.7729 20.2292C70.6137 20.3711 71.4288 20.6316 72.1928 21.0026C72.8036 21.3004 73.351 21.7087 73.806 22.2057C74.2131 22.6591 74.5179 23.191 74.7007 23.7669C74.8943 24.3814 74.9883 25.0218 74.9793 25.6647C75.0198 26.55 74.8192 27.4301 74.398 28.2151C73.9767 29 73.3499 29.662 72.5814 30.1333C71.0024 31.1311 68.6828 31.6276 65.6225 31.6229H57.8643ZM60.4968 19.2768H65.9818C66.6651 19.2761 67.3471 19.2186 68.0204 19.1049C68.6776 18.9952 69.3149 18.7925 69.9123 18.5033C70.4657 18.2254 70.9414 17.8198 71.2982 17.3217C71.6739 16.7581 71.8657 16.0963 71.8481 15.424C71.886 14.8019 71.7421 14.1822 71.4331 13.637C71.1241 13.0918 70.6628 12.6436 70.1029 12.3446C68.6912 11.6249 67.111 11.2792 65.5198 11.342C64.1889 11.342 62.9124 11.8579 61.9706 12.7763C61.0288 13.6947 60.4987 14.9406 60.4968 16.2404V19.2768ZM60.4968 29.5389H65.5858C67.3121 29.6339 69.0355 29.3091 70.6016 28.5936C71.1515 28.3056 71.6057 27.8702 71.911 27.3386C72.2163 26.8071 72.3598 26.2015 72.3248 25.593C72.3668 24.7034 72.0629 23.8311 71.4742 23.151C70.8528 22.5069 70.0609 22.0433 69.1863 21.8119C68.1459 21.5127 67.0664 21.3631 65.9818 21.3679H60.4968V29.5389Z" fill="white"/>
<path id="Vector_5" d="M80.7502 24.2325C80.7365 25.2318 80.9311 26.2235 81.3221 27.1471C81.6883 28.0024 82.3059 28.7326 83.0967 29.2454C84.0073 29.7999 85.0676 30.0744 86.1399 30.0331C87.2143 30.053 88.2731 29.7802 89.1977 29.2454C89.5499 29.0426 89.8626 28.7808 90.1216 28.472C90.4546 28.0557 90.8778 27.7166 91.3609 27.4788C91.8439 27.2411 92.3748 27.1107 92.9155 27.097H93.3335C93.1551 28.1083 92.6697 29.0439 91.9402 29.7825C91.2157 30.5034 90.3332 31.0543 89.359 31.3938C88.3377 31.7601 87.2573 31.9445 86.1692 31.938C84.6983 31.9663 83.2435 31.6339 81.9381 30.9713C80.7278 30.3397 79.7354 29.373 79.0856 28.1927C78.3722 26.8393 78.0215 25.3315 78.0663 23.8099C78.031 22.2765 78.3467 20.7547 78.9903 19.3556C79.5669 18.1323 80.5072 17.1067 81.6888 16.4123C82.9847 15.6843 84.4622 15.3223 85.9565 15.3668C87.3808 15.3217 88.7913 15.6506 90.041 16.3192C91.1536 16.9472 92.0438 17.8915 92.5928 19.0262C93.2104 20.3411 93.5114 21.7766 93.4728 23.2227V24.2325H80.7502ZM80.7502 22.5209H90.9136C90.9274 21.6031 90.7424 20.6929 90.371 19.8497C90.0284 19.0639 89.4507 18.3974 88.7137 17.9377C87.834 17.468 86.8447 17.2291 85.8423 17.2442C84.8398 17.2592 83.8585 17.5278 82.994 18.0236C82.2554 18.5223 81.6698 19.2081 81.3001 20.0073C80.9357 20.7868 80.7529 21.6355 80.7648 22.4923L80.7502 22.5209Z" fill="white"/>
<path id="Vector_6" d="M102.016 31.9308C100.991 31.9528 99.9725 31.7675 99.0243 31.3866C98.2173 31.0614 97.5226 30.5171 97.0224 29.8183C96.5217 29.0942 96.2653 28.2353 96.2891 27.3619C96.2369 26.5938 96.3932 25.8258 96.7421 25.1355C97.091 24.4452 97.6202 23.8571 98.2763 23.4304C99.5963 22.5806 101.737 22.1175 104.7 22.0411L108.08 21.948V20.6518C108.107 20.1834 108.028 19.715 107.849 19.2796C107.671 18.8441 107.397 18.4521 107.047 18.131C106.139 17.4387 104.996 17.1108 103.849 17.2144C102.865 17.1906 101.893 17.4256 101.034 17.8947C100.705 18.0793 100.414 18.3222 100.176 18.6108C99.8514 19.0424 99.4305 19.3958 98.945 19.644C98.4595 19.8923 97.9222 20.0288 97.3744 20.0431H97.1251C97.1614 19.1181 97.4863 18.226 98.0564 17.4865C98.6606 16.7449 99.466 16.1841 100.381 15.868C101.535 15.4654 102.756 15.2736 103.981 15.3023C105.23 15.2662 106.475 15.4631 107.648 15.8823C108.547 16.2195 109.317 16.8229 109.848 17.6082C110.372 18.473 110.627 19.4686 110.581 20.4727V31.6229C109.968 31.6239 109.379 31.396 108.933 30.9858C108.487 30.5757 108.219 30.0144 108.183 29.4172V28.5292C107.611 29.6676 106.677 30.5947 105.521 31.1717C104.425 31.6766 103.228 31.936 102.016 31.9308ZM102.749 30.1262C103.391 30.1259 104.028 30.0218 104.634 29.8183C105.246 29.6186 105.824 29.3314 106.35 28.9661C106.833 28.6378 107.255 28.2308 107.596 27.763C107.897 27.3709 108.068 26.8989 108.088 26.4095V23.5449L105.265 23.5951C104.045 23.5843 102.828 23.719 101.642 23.9961C100.844 24.1633 100.115 24.557 99.5449 25.1276C99.0718 25.688 98.8288 26.4001 98.863 27.1256C98.8438 27.5501 98.9329 27.9726 99.1223 28.3551C99.3118 28.7376 99.5956 29.0681 99.9483 29.317C100.768 29.8803 101.755 30.1647 102.757 30.1262H102.749Z" fill="white"/>
<path id="Vector_7" d="M120.862 17.4722H118.779V27.763C118.755 28.2219 118.82 28.6811 118.97 29.1165C119.032 29.2549 119.128 29.3762 119.25 29.4698C119.371 29.5635 119.514 29.6266 119.667 29.6536C120.125 29.7459 120.592 29.7868 121.06 29.7754H121.14C121.364 29.7744 121.586 29.8167 121.794 29.8998C122.001 29.9828 122.189 30.1051 122.348 30.2594C122.507 30.4138 122.633 30.5973 122.719 30.7993C122.805 31.0014 122.849 31.218 122.849 31.4368C122.539 31.5302 122.219 31.5902 121.896 31.6158C121.394 31.6651 120.89 31.689 120.385 31.6874C119.498 31.7298 118.611 31.5806 117.789 31.2506C117.203 30.9995 116.739 30.538 116.491 29.9616C116.219 29.2774 116.092 28.5466 116.117 27.8132V17.4722H113.28C113.276 17.234 113.32 16.9975 113.41 16.7761C113.501 16.5548 113.635 16.3531 113.805 16.1827C113.976 16.0122 114.179 15.8765 114.403 15.7831C114.628 15.6898 114.869 15.6408 115.113 15.6389H116.169L116.535 12.9391C116.608 12.4175 116.87 11.9387 117.273 11.5903C117.677 11.2418 118.196 11.047 118.735 11.0414V15.6389H122.688C122.692 16.1177 122.502 16.5787 122.16 16.9219C121.819 17.2651 121.352 17.4628 120.862 17.4722Z" fill="white"/>
<g id="Group 10975">
<path id="Vector_8" d="M7.03849 28.6795V18.088C6.99845 15.0614 7.83133 12.085 9.4419 9.49899C11.0525 6.91299 13.3757 4.8218 16.146 3.46458C18.7789 2.25831 21.6561 1.64641 24.5642 1.67425C27.6693 1.79229 30.7072 2.59274 33.4517 4.016C38.2988 6.56542 41.0633 11.7072 41.2319 17.0711V28.6939" stroke="#00AA61" stroke-width="2" stroke-miterlimit="10" stroke-linecap="round"/>
<path id="Vector_9" d="M42.0527 27.2545C42.917 27.2052 43.748 26.9115 44.4446 26.4093C45.1411 25.9071 45.6731 25.218 45.9759 24.4258C46.5902 23.0866 46.6661 21.5706 46.1885 20.1792C45.9082 19.3257 45.3555 18.5823 44.6113 18.0578C43.8671 17.5333 42.9704 17.2553 42.0527 17.2645V27.2545Z" fill="#00AA61" stroke="#00AA61" stroke-width="3" stroke-miterlimit="10"/>
<path id="Vector_10" d="M6.45225 27.2546C5.58742 27.207 4.75559 26.914 4.05874 26.4116C3.36189 25.9091 2.8303 25.219 2.52914 24.4258C1.91235 23.0875 1.83382 21.5715 2.30915 20.1792C2.59082 19.3251 3.14491 18.5815 3.89038 18.0571C4.63584 17.5327 5.53357 17.2549 6.45225 17.2645V27.2546Z" fill="#00AA61" stroke="#00AA61" stroke-width="3" stroke-miterlimit="10"/>
<path id="Vector_11" d="M7.03906 22.7215L12.7147 22.5711H12.8614V22.7215L12.9347 26.1016L12.9714 27.8131C12.9633 28.3592 12.9976 28.905 13.0741 29.4459C13.1639 29.9508 13.3785 30.4266 13.6993 30.8322C14.02 31.2378 14.4372 31.5608 14.9146 31.7733C15.8166 32.1815 16.8505 31.6086 17.4372 30.7922C17.7371 30.3799 17.9399 29.908 18.0311 29.4101C18.0792 29.1623 18.1013 28.9104 18.0971 28.6582V27.8131L18.0531 24.4258L17.9651 17.6584V14.2711V11.7217C17.9591 11.4053 17.9812 11.089 18.0311 10.7764C18.129 10.1113 18.3929 9.47992 18.7995 8.93792C19.2062 8.39591 19.7431 7.95992 20.363 7.66838C20.7054 7.50973 21.0779 7.42268 21.4567 7.41281C21.8356 7.40294 22.2123 7.47048 22.5629 7.61109C23.2135 7.89583 23.7679 8.3553 24.1614 8.93593C24.535 9.49642 24.771 10.1336 24.8507 10.7979C24.8617 10.9624 24.8617 11.1275 24.8507 11.292V12.5667V15.954L24.8874 22.7215V29.4889V32.4537C24.8796 32.5705 24.8796 32.6877 24.8874 32.8046C24.9169 33.257 25.068 33.6938 25.3254 34.071C25.5829 34.4482 25.9377 34.7524 26.354 34.953C26.7395 35.1414 27.1797 35.1945 27.6006 35.1034C28.0352 34.9835 28.4201 34.7329 28.7005 34.3872C29.0021 34.0415 29.2045 33.6239 29.2872 33.177C29.3462 32.6539 29.3658 32.1273 29.3458 31.6015L29.3898 24.834L29.4778 18.0666L29.4998 14.6936C29.504 14.0543 29.6744 13.4264 29.995 12.869C30.3157 12.3116 30.7761 11.8429 31.333 11.5068C31.9131 11.1563 32.6021 11.0192 33.2763 11.1201C33.9243 11.2495 34.5128 11.5783 34.9555 12.0583C35.3864 12.5276 35.6802 13.1014 35.8061 13.7197C35.8693 14.0187 35.8964 14.324 35.8868 14.6292V15.4742L35.7401 22.2416L35.5861 22.0984L41.2765 22.2416L35.5861 22.392H35.4395V22.2345L35.2928 15.467V14.622C35.2885 14.3636 35.2541 14.1065 35.1902 13.8558C35.0642 13.365 34.8118 12.9138 34.4569 12.5452C34.1193 12.1814 33.6728 11.9308 33.1809 11.8291C32.6958 11.7728 32.2061 11.8898 31.8024 12.1585C31.3812 12.431 31.0374 12.803 30.8029 13.2399C30.5683 13.6769 30.4505 14.1646 30.4604 14.6578L30.5044 18.038L30.5998 24.8054L30.6364 31.5728V32.468C30.6491 32.7892 30.627 33.1109 30.5704 33.4276C30.4479 34.0968 30.1497 34.7235 29.7051 35.2466C29.243 35.7842 28.6239 36.1714 27.9306 36.3566C27.2151 36.5259 26.4618 36.4501 25.7967 36.1417C25.1648 35.8482 24.6225 35.3983 24.2237 34.8367C23.825 34.2752 23.5836 33.6215 23.5235 32.9406C23.5235 32.7831 23.5235 32.5969 23.5235 32.4537V29.4889V22.7215V15.954V12.5667V11.3421C23.5235 11.2276 23.5235 11.1058 23.5235 10.9912C23.4708 10.5297 23.3103 10.0863 23.0542 9.69503C22.8145 9.32433 22.4709 9.02857 22.0642 8.84284C21.8837 8.76181 21.6873 8.71985 21.4886 8.71985C21.2899 8.71985 21.0935 8.76181 20.913 8.84284C20.4887 9.04832 20.1217 9.35106 19.8433 9.72518C19.5649 10.0993 19.3835 10.5337 19.3144 10.9912C19.272 11.2276 19.2548 11.4676 19.2631 11.7074V14.2425V17.6298L19.1751 24.3972L19.0137 27.8131V28.6582C19.0089 28.9686 18.9745 29.2778 18.9111 29.582C18.7797 30.1969 18.5119 30.7763 18.1264 31.2792C17.7458 31.7825 17.2414 32.1839 16.6599 32.4465C16.3468 32.5813 16.0084 32.6508 15.6663 32.6508C15.3241 32.6508 14.9857 32.5813 14.6726 32.4465C14.1025 32.1781 13.6093 31.776 13.237 31.2762C12.8647 30.7764 12.6248 30.1943 12.5388 29.582C12.457 28.996 12.4276 28.4041 12.4508 27.8131L12.4874 26.1159L12.5608 22.7358L12.7147 22.879L7.03906 22.7215Z" fill="#00AA61"/>
</g>
</g>
</svg>
